<?xml version="1.0" standalone="no"?>
<!DOCTYPE svg PUBLIC "-//W3C//DTD SVG 1.1//EN" "http://www.w3.org/Graphics/SVG/1.1/DTD/svg11.dtd">
<svg width="100%" height="100%" viewBox="0 0 752 546" version="1.1" xmlns="http://www.w3.org/2000/svg" xmlns:xlink="http://www.w3.org/1999/xlink" xml:space="preserve" style="fill-rule:evenodd;clip-rule:evenodd;stroke-linejoin:round;stroke-miterlimit:1.41421;">
    <g transform="matrix(1,0,0,1,-24,-127)">
        <g>
            <path d="M27.972,422.871C61.205,425.031 95.034,429.963 128.192,431.753C149.748,432.919 170.569,430.633 192.098,431.711C192.662,431.739 193.236,431.628 193.745,431.392C225.978,416.571 249.908,407.351 299.349,390.12C324.791,381.257 356.155,376.881 382.614,371.617C397.931,368.573 398.185,367.8 396.575,349.398C396.524,348.82 396.321,348.219 396.011,347.729C374.778,314.209 366.137,290.47 331.73,251.344C329.033,249.804 331.73,248.263 331.73,246.718C353.36,254.096 410.319,324.262 432.967,356.966C433.328,357.489 433.777,357.882 434.35,358.146C450.309,365.459 483.435,365.765 499.617,366.759C501.476,366.875 503.091,365.501 503.294,363.646C506.047,338.597 500.297,328.342 502.887,302.228C503.461,296.497 515.22,280.977 516.765,274.473C525.545,237.536 526.854,195.778 526.026,159.086C526.021,158.914 526.007,158.766 525.979,158.595C525.623,156.463 522.917,140.235 521.839,133.741C521.589,132.246 522.371,130.845 523.666,130.054C527.4,127.778 526.243,124.919 539.066,130.697C539.589,130.933 540.098,131.307 540.472,131.747C595.705,196.833 566.789,277.309 563.111,373.823C563.056,375.276 563.879,376.608 565.207,377.2C579.589,383.602 605.086,396.818 627.785,399.372C664.131,403.466 706.818,419.406 724.929,445.63C733.621,458.217 737.798,468.172 738.806,482.637C739.348,490.4 735.24,501.59 738.806,510.393C749.77,537.44 772.039,537.648 775.813,579.781C773.621,583.194 774.273,582.866 771.187,584.406C766.353,579.702 766.654,574.243 761.936,570.529C755.247,565.26 748.377,562.026 743.432,556.651C736.368,548.972 728.393,538.934 720.303,533.522C695.869,517.183 665.87,509.329 637.037,491.889C628.558,486.764 612.761,491.621 601.501,491.884C600.544,491.908 599.665,492.296 599.017,493.004C517.477,581.492 381.546,561.453 276.22,561.277C262.717,561.259 249.343,572.037 239.213,579.781C205.115,605.861 247.063,625.174 248.464,663.046C248.904,674.875 237.991,672.645 230.96,672.33C230.294,672.303 229.646,672.09 229.091,671.715C189.6,645.329 183.85,650.131 140.686,659.54C131.064,661.635 121.535,655.451 119.731,645.769C100.668,543.62 175.204,564.178 165.388,484.122C165.277,483.188 164.796,482.281 164.07,481.675C135.551,457.912 98.073,465.059 68.055,454.882C51.583,449.299 40.217,437.387 27.639,432.229C26.857,431.91 26.214,431.336 25.835,430.578L24.568,428.043C23.342,425.591 25.234,422.695 27.972,422.871ZM201.2,588.818C201.2,588.818 180.874,594.956 183.941,624.488C183.941,624.488 184.783,629.238 183.752,630.238C181.813,632.111 172.983,630.238 172.983,630.238C171.188,630.238 169.527,629.368 168.519,627.888C165.313,623.192 158.915,612.28 161.025,602.529C163.476,591.214 179.834,585.473 183.701,584.266C184.233,584.099 184.765,584.025 185.324,584.03L202.158,584.118L201.2,588.818Z" style="fill:black;"/>
        </g>
    </g>
</svg>
